name ./resultDataOpenSim/trcMotMarkerGrf/sub10/grf-13-06.mot
datacolumns 19
datarows 30
range 1.02400000 1.14000000
endheader

                time	     ground_force_vx	     ground_force_vy	     ground_force_vz	     ground_force_px	     ground_force_py	     ground_force_pz	   l_ground_force_vx	   l_ground_force_vy	   l_ground_force_vz	   l_ground_force_px	   l_ground_force_py	   l_ground_force_pz	     ground_torque_x	     ground_torque_y	     ground_torque_z	   l_ground_torque_x	   l_ground_torque_y	   l_ground_torque_z	
          1.02400000	          0.00000000	          0.00000000	          0.00000000	          0.00000000	          0.00000000	          0.00000000	          8.04646818	        806.76642127	         30.34664722	          0.06542536	         -0.05000000	         -0.11605958	          0.00000000	          0.00000000	          0.00000000	          0.00000000	         -6.12734602	          0.00000000	
          1.02800000	          0.00000000	          0.00000000	          0.00000000	          0.00000000	          0.00000000	          0.00000000	         11.38732683	        811.60012738	         30.65075682	          0.06555143	         -0.05000060	         -0.11599380	          0.00000000	          0.00000000	          0.00000000	          0.00000000	         -6.16996777	          0.00000000	
          1.03200000	          0.00000000	          0.00000000	          0.00000000	          0.00000000	          0.00000000	          0.00000000	         15.04333429	        816.96931427	         31.04284135	          0.06562816	         -0.05000095	         -0.11591580	          0.00000000	          0.00000000	          0.00000000	          0.00000000	         -6.20119155	          0.00000000	
          1.03600000	          0.00000000	          0.00000000	          0.00000000	          0.00000000	          0.00000000	          0.00000000	         19.00160502	        822.73127529	         31.47958770	          0.06563639	         -0.05000100	         -0.11581959	          0.00000000	          0.00000000	          0.00000000	          0.00000000	         -6.22218814	          0.00000000	
          1.04000000	          0.00000000	          0.00000000	          0.00000000	          0.00000000	          0.00000000	          0.00000000	         23.25588062	        828.70935568	         31.92123136	          0.06557111	         -0.05000100	         -0.11571171	          0.00000000	          0.00000000	          0.00000000	          0.00000000	         -6.23483358	          0.00000000	
          1.04400000	          0.00000000	          0.00000000	          0.00000000	          0.00000000	          0.00000000	          0.00000000	         27.80700459	        834.74562490	         32.35398622	          0.06546439	         -0.05000100	         -0.11559514	          0.00000000	          0.00000000	          0.00000000	          0.00000000	         -6.24112360	          0.00000000	
          1.04800000	          0.00000000	          0.00000000	          0.00000000	          0.00000000	          0.00000000	          0.00000000	         32.65829888	        840.71059027	         32.78811171	          0.06536268	         -0.05000100	         -0.11548210	          0.00000000	          0.00000000	          0.00000000	          0.00000000	         -6.24270686	          0.00000000	
          1.05200000	          0.00000000	          0.00000000	          0.00000000	          0.00000000	          0.00000000	          0.00000000	         37.81340943	        846.50721103	         33.24206618	          0.06529975	         -0.05000100	         -0.11539552	          0.00000000	          0.00000000	          0.00000000	          0.00000000	         -6.24069233	          0.00000000	
          1.05600000	          0.00000000	          0.00000000	          0.00000000	          0.00000000	          0.00000000	          0.00000000	         43.27594030	        852.06259396	         33.72328710	          0.06529324	         -0.05000100	         -0.11534565	          0.00000000	          0.00000000	          0.00000000	          0.00000000	         -6.23572087	          0.00000000	
          1.06000000	          0.00000000	          0.00000000	          0.00000000	          0.00000000	          0.00000000	          0.00000000	         49.06059495	        857.31033243	         34.21356483	          0.06534967	         -0.05000100	         -0.11531613	          0.00000000	          0.00000000	          0.00000000	          0.00000000	         -6.22814903	          0.00000000	
          1.06400000	          0.00000000	          0.00000000	          0.00000000	          0.00000000	          0.00000000	          0.00000000	         55.19730381	        862.19342479	         34.66812882	          0.06547056	         -0.05000100	         -0.11527438	          0.00000000	          0.00000000	          0.00000000	          0.00000000	         -6.21815139	          0.00000000	
          1.06800000	          0.00000000	          0.00000000	          0.00000000	          0.00000000	          0.00000000	          0.00000000	         61.70874940	        866.66416567	         35.02953650	          0.06565565	         -0.05000100	         -0.11519215	          0.00000000	          0.00000000	          0.00000000	          0.00000000	         -6.20563877	          0.00000000	
          1.07200000	          0.00000000	          0.00000000	          0.00000000	          0.00000000	          0.00000000	          0.00000000	         68.58918297	        870.64416962	         35.25170847	          0.06588849	         -0.05000100	         -0.11506316	          0.00000000	          0.00000000	          0.00000000	          0.00000000	         -6.19005703	          0.00000000	
          1.07600000	          0.00000000	          0.00000000	          0.00000000	          0.00000000	          0.00000000	          0.00000000	         75.81034486	        873.98720046	         35.31852712	          0.06612496	         -0.05000100	         -0.11490781	          0.00000000	          0.00000000	          0.00000000	          0.00000000	         -6.17024629	          0.00000000	
          1.08000000	          0.00000000	          0.00000000	          0.00000000	          0.00000000	          0.00000000	          0.00000000	         83.33871166	        876.50540749	         35.23792651	          0.06631426	         -0.05000100	         -0.11475692	          0.00000000	          0.00000000	          0.00000000	          0.00000000	         -6.14448623	          0.00000000	
          1.08400000	          0.00000000	          0.00000000	          0.00000000	          0.00000000	          0.00000000	          0.00000000	         91.14427281	        878.03648698	         35.01524046	          0.06643000	         -0.05000100	         -0.11463525	          0.00000000	          0.00000000	          0.00000000	          0.00000000	         -6.11067710	          0.00000000	
          1.08800000	          0.00000000	          0.00000000	          0.00000000	          0.00000000	          0.00000000	          0.00000000	         99.19398023	        878.48986347	         34.63231231	          0.06648577	         -0.05000100	         -0.11455919	          0.00000000	          0.00000000	          0.00000000	          0.00000000	         -6.06650340	          0.00000000	
          1.09200000	          0.00000000	          0.00000000	          0.00000000	          0.00000000	          0.00000000	          0.00000000	        107.43127546	        877.85093899	         34.05668094	          0.06651818	         -0.05000100	         -0.11452439	          0.00000000	          0.00000000	          0.00000000	          0.00000000	         -6.00950787	          0.00000000	
          1.09600000	          0.00000000	          0.00000000	          0.00000000	          0.00000000	          0.00000000	          0.00000000	        115.76134196	        876.15348628	         33.27161645	          0.06655862	         -0.05000100	         -0.11450465	          0.00000000	          0.00000000	          0.00000000	          0.00000000	         -5.93717579	          0.00000000	
          1.10000000	          0.00000000	          0.00000000	          0.00000000	          0.00000000	          0.00000000	          0.00000000	        124.06432518	        873.42275233	         32.29190528	          0.06664104	         -0.05000100	         -0.11446478	          0.00000000	          0.00000000	          0.00000000	          0.00000000	         -5.84717207	          0.00000000	
          1.10400000	          0.00000000	          0.00000000	          0.00000000	          0.00000000	          0.00000000	          0.00000000	        132.22393970	        869.60794314	         31.15105371	          0.06678892	         -0.05000100	         -0.11438374	          0.00000000	          0.00000000	          0.00000000	          0.00000000	         -5.73769221	          0.00000000	
          1.10800000	          0.00000000	          0.00000000	          0.00000000	          0.00000000	          0.00000000	          0.00000000	        140.14734485	        864.57572467	         29.87784921	          0.06698378	         -0.05000100	         -0.11427304	          0.00000000	          0.00000000	          0.00000000	          0.00000000	         -5.60769269	          0.00000000	
          1.11200000	          0.00000000	          0.00000000	          0.00000000	          0.00000000	          0.00000000	          0.00000000	        147.78414180	        858.18962731	         28.48481260	          0.06719557	         -0.05000100	         -0.11415318	          0.00000000	          0.00000000	          0.00000000	          0.00000000	         -5.45679931	          0.00000000	
          1.11600000	          0.00000000	          0.00000000	          0.00000000	          0.00000000	          0.00000000	          0.00000000	        155.13920228	        850.37439008	         26.97115399	          0.06740988	         -0.05000100	         -0.11402400	          0.00000000	          0.00000000	          0.00000000	          0.00000000	         -5.28492297	          0.00000000	
          1.12000000	          0.00000000	          0.00000000	          0.00000000	          0.00000000	          0.00000000	          0.00000000	        162.25090138	        841.08570953	         25.33228780	          0.06762802	         -0.05000020	         -0.11387231	          0.00000000	          0.00000000	          0.00000000	          0.00000000	         -5.09182616	          0.00000000	
          1.12400000	          0.00000000	          0.00000000	          0.00000000	          0.00000000	          0.00000000	          0.00000000	        169.15099638	        830.25035011	         23.57168570	          0.06784707	         -0.05000000	         -0.11369492	          0.00000000	          0.00000000	          0.00000000	          0.00000000	         -4.87692132	          0.00000000	
          1.12800000	          0.00000000	          0.00000000	          0.00000000	          0.00000000	          0.00000000	          0.00000000	        175.84746276	        817.76242616	         21.70282425	          0.06805611	         -0.05000000	         -0.11349989	          0.00000000	          0.00000000	          0.00000000	          0.00000000	         -4.63942763	          0.00000000	
          1.13200000	          0.00000000	          0.00000000	          0.00000000	          0.00000000	          0.00000000	          0.00000000	        182.33227161	        803.51116850	         19.73936147	          0.06824053	         -0.05000000	         -0.11329959	          0.00000000	          0.00000000	          0.00000000	          0.00000000	         -4.37879111	          0.00000000	
          1.13600000	          0.00000000	          0.00000000	          0.00000000	          0.00000000	          0.00000000	          0.00000000	        188.58222375	        787.39776973	         17.69610839	          0.06839905	         -0.04999936	         -0.11310908	          0.00000000	          0.00000000	          0.00000000	          0.00000000	         -4.09515388	          0.00000000	
          1.14000000	          0.00000000	          0.00000000	          0.00000000	          0.00000000	          0.00000000	          0.00000000	        194.53746105	        769.35571571	         15.60353763	          0.06855632	         -0.04999900	         -0.11293484	          0.00000000	          0.00000000	          0.00000000	          0.00000000	         -3.78969049	          0.00000000	
